<svg width="80" height="80" viewBox="0 0 80 80" fill="none" xmlns="http://www.w3.org/2000/svg">
<path d="M10 1.5H70C74.6944 1.5 78.5 5.30558 78.5 10V70C78.5 74.6944 74.6944 78.5 70 78.5H10C5.30558 78.5 1.5 74.6944 1.5 70V10C1.5 5.30558 5.30558 1.5 10 1.5Z" fill="#C089F0" stroke="black" stroke-width="3"/>
<rect x="20" y="40" width="19" height="20" fill="white"/>
<path d="M3 60H20V77H10C6.13401 77 3 73.866 3 70V60Z" fill="white"/>
<rect x="40" y="3" width="21" height="17" fill="white"/>
<rect x="60" y="21" width="17" height="20" fill="white"/>
<line x1="2" y1="20.5" x2="77" y2="20.5" stroke="black" stroke-width="3"/>
<line x1="2" y1="60.5" x2="77" y2="60.5" stroke="black" stroke-width="3"/>
<line x1="2" y1="40.5" x2="77" y2="40.5" stroke="black" stroke-width="3"/>
<line x1="19.5" y1="40" x2="19.5" y2="79" stroke="black" stroke-width="3"/>
<line x1="39.5" y1="40" x2="39.5" y2="60" stroke="black" stroke-width="3"/>
<line x1="39.5" y1="1" x2="39.5" y2="21" stroke="black" stroke-width="3"/>
<line x1="59.5" y1="1" x2="59.5" y2="40" stroke="black" stroke-width="3"/>
</svg>
