<svg width="92" height="90" viewBox="0 0 92 90" fill="none" xmlns="http://www.w3.org/2000/svg">
<mask id="path-1-outside-1_149_60" maskUnits="userSpaceOnUse" x="19.8378" y="0" width="33" height="33" fill="black">
<rect fill="white" x="19.8378" width="33" height="33"/>
<path fill-rule="evenodd" clip-rule="evenodd" d="M36.3243 4C29.4282 4 23.8378 9.59039 23.8378 16.4865C23.8378 23.3826 29.4282 28.973 36.3243 28.973H46.5405L48.8108 28.973L48.8108 26.7027V16.4865C48.8108 9.59039 43.2204 4 36.3243 4Z"/>
</mask>
<path fill-rule="evenodd" clip-rule="evenodd" d="M36.3243 4C29.4282 4 23.8378 9.59039 23.8378 16.4865C23.8378 23.3826 29.4282 28.973 36.3243 28.973H46.5405L48.8108 28.973L48.8108 26.7027V16.4865C48.8108 9.59039 43.2204 4 36.3243 4Z" fill="white"/>
<path d="M46.5405 28.973L46.5405 24.973H46.5405V28.973ZM48.8108 28.973L48.8108 32.973L52.8108 32.973L52.8108 28.973L48.8108 28.973ZM48.8108 26.7027H44.8108V26.7027L48.8108 26.7027ZM27.8378 16.4865C27.8378 11.7995 31.6374 8 36.3243 8V0C27.2191 0 19.8378 7.38125 19.8378 16.4865H27.8378ZM36.3243 24.973C31.6374 24.973 27.8378 21.1734 27.8378 16.4865H19.8378C19.8378 25.5917 27.2191 32.973 36.3243 32.973V24.973ZM46.5405 24.973H36.3243V32.973H46.5405V24.973ZM48.8108 24.973L46.5405 24.973L46.5405 32.973L48.8108 32.973L48.8108 24.973ZM44.8108 26.7027L44.8108 28.973L52.8108 28.973L52.8108 26.7027L44.8108 26.7027ZM44.8108 16.4865V26.7027H52.8108V16.4865H44.8108ZM36.3243 8C41.0113 8 44.8108 11.7995 44.8108 16.4865H52.8108C52.8108 7.38125 45.4296 0 36.3243 0V8Z" fill="black" mask="url(#path-1-outside-1_149_60)"/>
<mask id="path-3-outside-2_149_60" maskUnits="userSpaceOnUse" x="49.3243" y="0" width="33" height="33" fill="black">
<rect fill="white" x="49.3243" width="33" height="33"/>
<path fill-rule="evenodd" clip-rule="evenodd" d="M65.8378 4C72.7339 4 78.3243 9.59039 78.3243 16.4865C78.3243 23.3826 72.7339 28.973 65.8378 28.973H55.6216C55.6216 28.973 55.6216 28.973 55.6216 28.973H53.3513V26.7027L53.3513 26.7027V16.4865C53.3513 9.59039 58.9417 4 65.8378 4Z"/>
</mask>
<path fill-rule="evenodd" clip-rule="evenodd" d="M65.8378 4C72.7339 4 78.3243 9.59039 78.3243 16.4865C78.3243 23.3826 72.7339 28.973 65.8378 28.973H55.6216C55.6216 28.973 55.6216 28.973 55.6216 28.973H53.3513V26.7027L53.3513 26.7027V16.4865C53.3513 9.59039 58.9417 4 65.8378 4Z" fill="white"/>
<path d="M53.3513 28.973V32.973H49.3513V28.973H53.3513ZM53.3513 26.7027H49.3513V23.4235L52.5668 22.7804L53.3513 26.7027ZM53.3513 26.7027H57.3513V29.9819L54.1358 30.625L53.3513 26.7027ZM74.3243 16.4865C74.3243 11.7995 70.5247 8 65.8378 8V0C74.943 0 82.3243 7.38125 82.3243 16.4865H74.3243ZM65.8378 24.973C70.5247 24.973 74.3243 21.1734 74.3243 16.4865H82.3243C82.3243 25.5917 74.943 32.973 65.8378 32.973V24.973ZM55.6216 24.973H65.8378V32.973H55.6216V24.973ZM55.6216 24.973C55.511 24.973 55.4104 24.9776 55.3217 24.9842C55.2329 24.9909 55.1528 24.9999 55.0828 25.0094C55.0128 25.0189 54.9502 25.0293 54.8962 25.0393C54.8422 25.0493 54.7943 25.0592 54.7538 25.0682C54.7134 25.0772 54.6781 25.0857 54.6493 25.0929C54.6206 25.1001 54.5963 25.1066 54.5779 25.1115C54.5597 25.1164 54.545 25.1206 54.5363 25.123C54.5319 25.1243 54.5283 25.1253 54.5261 25.1259C54.5241 25.1265 54.5224 25.127 54.5227 25.1269C54.5227 25.1269 54.5227 25.1269 54.5227 25.1269C54.5227 25.1269 54.5227 25.1269 54.5227 25.1269C54.5228 25.1269 54.5228 25.1268 54.5229 25.1268C54.523 25.1268 54.5233 25.1267 54.5235 25.1266C54.5241 25.1265 54.525 25.1262 54.5261 25.1259C54.5283 25.1253 54.5319 25.1243 54.5363 25.123C54.545 25.1206 54.5597 25.1164 54.5779 25.1115C54.5963 25.1066 54.6206 25.1001 54.6493 25.0929C54.6781 25.0857 54.7134 25.0772 54.7538 25.0682C54.7943 25.0592 54.8422 25.0493 54.8962 25.0393C54.9502 25.0293 55.0129 25.0189 55.0828 25.0094C55.1528 24.9999 55.2329 24.9909 55.3217 24.9842C55.4104 24.9776 55.511 24.973 55.6216 24.973V32.973C55.7322 32.973 55.8327 32.9684 55.9215 32.9617C56.0103 32.955 56.0904 32.946 56.1603 32.9365C56.2303 32.927 56.2929 32.9166 56.3469 32.9067C56.401 32.8967 56.4488 32.8867 56.4893 32.8777C56.5298 32.8687 56.565 32.8602 56.5938 32.853C56.6225 32.8458 56.6469 32.8394 56.6652 32.8344C56.6834 32.8295 56.6981 32.8254 56.7068 32.8229C56.7113 32.8217 56.7149 32.8207 56.717 32.82C56.719 32.8195 56.7207 32.819 56.7205 32.8191C56.7205 32.8191 56.7204 32.8191 56.7204 32.8191C56.7204 32.8191 56.7204 32.8191 56.7204 32.8191C56.7204 32.8191 56.7203 32.8191 56.7202 32.8191C56.7201 32.8192 56.7199 32.8192 56.7196 32.8193C56.7191 32.8195 56.7182 32.8197 56.717 32.82C56.7149 32.8207 56.7113 32.8217 56.7068 32.8229C56.6981 32.8254 56.6834 32.8295 56.6652 32.8344C56.6469 32.8394 56.6225 32.8458 56.5938 32.853C56.565 32.8602 56.5298 32.8687 56.4893 32.8777C56.4488 32.8867 56.401 32.8967 56.3469 32.9067C56.2929 32.9166 56.2303 32.927 56.1603 32.9365C56.0904 32.946 56.0103 32.955 55.9215 32.9617C55.8327 32.9684 55.7321 32.973 55.6216 32.973V24.973ZM53.3513 24.973H55.6216V32.973H53.3513V24.973ZM57.3513 26.7027V28.973H49.3513V26.7027H57.3513ZM54.1358 30.625L54.1358 30.625L52.5668 22.7804L52.5668 22.7804L54.1358 30.625ZM57.3513 16.4865V26.7027H49.3513V16.4865H57.3513ZM65.8378 8C61.1508 8 57.3513 11.7995 57.3513 16.4865H49.3513C49.3513 7.38125 56.7326 0 65.8378 0V8Z" fill="black" mask="url(#path-3-outside-2_149_60)"/>
<path d="M61.8647 32.6487C77.075 32.6487 89.4058 44.9795 89.4058 60.1897C89.4055 75.3997 77.0748 87.7297 61.8647 87.7297H39.1626C23.9525 87.7297 11.6218 75.3997 11.6216 60.1897C11.6216 44.9795 23.9524 32.6487 39.1626 32.6487H61.8647Z" fill="#F7DA21" stroke="black" stroke-width="4"/>
<line y1="58.7567" x2="11.3514" y2="58.7567" stroke="black" stroke-width="4"/>
<circle cx="70.3784" cy="55.0811" r="2.27027" fill="black" stroke="black" stroke-width="4"/>
<path d="M68.8874 68.9087V68.9087C74.0493 73.1793 81.413 73.5223 86.9496 69.7502L88.1847 68.9087" stroke="black" stroke-width="4"/>
<line x1="50.8108" y1="31.2433" x2="50.8108" y2="88" stroke="black" stroke-width="4"/>
<line x1="36.054" y1="31.2433" x2="36.054" y2="88" stroke="black" stroke-width="4"/>
</svg>
