<svg width="80" height="80" viewBox="0 0 80 80" fill="none" xmlns="http://www.w3.org/2000/svg">
<rect x="1.5" y="1.5" width="77" height="77" fill="white" stroke="black" stroke-width="3"/>
<line x1="39.9" y1="7.3763e-08" x2="39.9" y2="80" stroke="black" stroke-width="3"/>
<line x1="80" y1="41.5" x2="-1.31134e-07" y2="41.5" stroke="black" stroke-width="3"/>
<path d="M23.743 31.5556H19.817V20.8176C19.817 20.5229 19.817 20.1589 19.817 19.7256C19.8343 19.2922 19.8517 18.8416 19.869 18.3736C19.8863 17.9056 19.9037 17.4896 19.921 17.1256C19.8343 17.2296 19.6437 17.4202 19.349 17.6976C19.0717 17.9576 18.8117 18.1916 18.569 18.3996L16.437 20.1156L14.539 17.7496L20.519 12.9916H23.743V31.5556Z" fill="black"/>
<path d="M27.019 70.6667H14.045V67.9367L18.699 63.2307C19.635 62.26 20.389 61.454 20.961 60.8127C21.533 60.154 21.949 59.5647 22.209 59.0447C22.469 58.5073 22.599 57.9353 22.599 57.3287C22.599 56.5833 22.391 56.0287 21.975 55.6647C21.5763 55.3007 21.0303 55.1187 20.337 55.1187C19.6263 55.1187 18.933 55.2833 18.257 55.6127C17.581 55.942 16.8703 56.41 16.125 57.0167L13.993 54.4947C14.5303 54.0267 15.0937 53.5933 15.683 53.1947C16.2897 52.796 16.983 52.4753 17.763 52.2327C18.5603 51.9727 19.5137 51.8427 20.623 51.8427C21.8363 51.8427 22.8763 52.068 23.743 52.5187C24.627 52.952 25.303 53.55 25.771 54.3127C26.2563 55.058 26.499 55.9073 26.499 56.8607C26.499 57.6407 26.3777 58.36 26.135 59.0187C25.9097 59.6773 25.5717 60.3187 25.121 60.9427C24.6877 61.5493 24.1503 62.182 23.509 62.8407C22.8677 63.482 22.1397 64.184 21.325 64.9467L18.933 67.1827V67.3647H27.019V70.6667Z" fill="black"/>
<path d="M64.5132 56.2627C64.5132 57.112 64.3312 57.8487 63.9672 58.4727C63.6206 59.0967 63.1439 59.608 62.5372 60.0067C61.9479 60.4053 61.2719 60.7 60.5092 60.8907V60.9687C61.9999 61.142 63.1266 61.5927 63.8892 62.3207C64.6692 63.0487 65.0592 64.028 65.0592 65.2587C65.0592 66.3333 64.7906 67.304 64.2532 68.1707C63.7332 69.02 62.9186 69.696 61.8092 70.1987C60.7172 70.684 59.3046 70.9267 57.5712 70.9267C56.5486 70.9267 55.5952 70.84 54.7112 70.6667C53.8272 70.4933 52.9952 70.242 52.2152 69.9127V66.5847C53.0126 66.9833 53.8446 67.2867 54.7112 67.4947C55.5952 67.7027 56.4099 67.8067 57.1552 67.8067C58.5592 67.8067 59.5386 67.564 60.0932 67.0787C60.6652 66.5933 60.9512 65.9087 60.9512 65.0247C60.9512 64.5047 60.8212 64.0713 60.5612 63.7247C60.3012 63.3607 59.8419 63.092 59.1832 62.9187C58.5419 62.728 57.6406 62.6327 56.4792 62.6327H55.0752V59.6167H56.5052C57.6492 59.6167 58.5159 59.5127 59.1052 59.3047C59.7119 59.0793 60.1192 58.7847 60.3272 58.4207C60.5526 58.0393 60.6652 57.606 60.6652 57.1207C60.6652 56.462 60.4572 55.9507 60.0412 55.5867C59.6426 55.2053 58.9666 55.0147 58.0132 55.0147C57.4239 55.0147 56.8866 55.0927 56.4012 55.2487C55.9159 55.3873 55.4739 55.5607 55.0752 55.7687C54.6939 55.9767 54.3559 56.176 54.0612 56.3667L52.2412 53.6627C52.7266 53.316 53.2639 53.004 53.8532 52.7267C54.4599 52.4493 55.1272 52.2327 55.8552 52.0767C56.5832 51.9207 57.3979 51.8427 58.2992 51.8427C60.2059 51.8427 61.7139 52.2327 62.8232 53.0127C63.9499 53.7753 64.5132 54.8587 64.5132 56.2627Z" fill="black"/>
<rect x="40.8889" y="2.66667" width="36.4444" height="37.3333" fill="#AEA9DE"/>
</svg>
